<mxfile host="65bd71144e">
    <diagram id="nISYWvTR7O2ufpXwh6yK" name="Page-1">
        <mxGraphModel dx="2102" dy="1124" grid="1" gridSize="10" guides="1" tooltips="1" connect="1" arrows="1" fold="1" page="1" pageScale="1" pageWidth="850" pageHeight="1100" math="0" shadow="0">
            <root>
                <mxCell id="0"/>
                <mxCell id="1" parent="0"/>
                <mxCell id="2" style="edgeStyle=none;html=1;exitX=0.5;exitY=1;exitDx=0;exitDy=0;entryX=0.5;entryY=0;entryDx=0;entryDy=0;fontSize=20;" parent="1" source="3" edge="1">
                    <mxGeometry relative="1" as="geometry">
                        <mxPoint x="510" y="170" as="targetPoint"/>
                    </mxGeometry>
                </mxCell>
                <mxCell id="3" value="Начало" style="rounded=1;whiteSpace=wrap;html=1;arcSize=50;fontSize=20;" parent="1" vertex="1">
                    <mxGeometry x="320" y="80" width="380" height="60" as="geometry"/>
                </mxCell>
                <mxCell id="15" style="edgeStyle=none;html=1;exitX=0.5;exitY=1;exitDx=0;exitDy=0;entryX=0.5;entryY=0;entryDx=0;entryDy=0;fontSize=20;" parent="1" source="11" target="12" edge="1">
                    <mxGeometry relative="1" as="geometry"/>
                </mxCell>
                <mxCell id="11" value="Цикл по каждому слову из words" style="shape=loopLimit;whiteSpace=wrap;html=1;fontSize=20;" parent="1" vertex="1">
                    <mxGeometry x="325" y="370" width="370" height="60" as="geometry"/>
                </mxCell>
                <mxCell id="18" style="edgeStyle=none;html=1;exitX=0.5;exitY=1;exitDx=0;exitDy=0;entryX=0.5;entryY=0;entryDx=0;entryDy=0;fontSize=20;" parent="1" source="12" target="17" edge="1">
                    <mxGeometry relative="1" as="geometry"/>
                </mxCell>
                <mxCell id="12" value="vect.append(SVM_model.predict(word))" style="rounded=0;whiteSpace=wrap;html=1;fontSize=20;" parent="1" vertex="1">
                    <mxGeometry x="325" y="460" width="370" height="60" as="geometry"/>
                </mxCell>
                <mxCell id="14" style="edgeStyle=none;html=1;exitX=0.5;exitY=1;exitDx=0;exitDy=0;entryX=0.5;entryY=0;entryDx=0;entryDy=0;fontSize=20;" parent="1" source="13" target="11" edge="1">
                    <mxGeometry relative="1" as="geometry"/>
                </mxCell>
                <mxCell id="13" value="vect = []" style="rounded=0;whiteSpace=wrap;html=1;fontSize=20;" parent="1" vertex="1">
                    <mxGeometry x="325" y="270" width="370" height="60" as="geometry"/>
                </mxCell>
                <mxCell id="19" style="edgeStyle=none;html=1;exitX=0.5;exitY=1;exitDx=0;exitDy=0;entryX=0.5;entryY=0;entryDx=0;entryDy=0;fontSize=20;" parent="1" source="17" target="28" edge="1">
                    <mxGeometry relative="1" as="geometry">
                        <mxPoint x="510" y="660" as="targetPoint"/>
                    </mxGeometry>
                </mxCell>
                <mxCell id="17" value="Конец цикла по каждому слову" style="shape=loopLimit;whiteSpace=wrap;html=1;flipV=1;fontSize=20;" parent="1" vertex="1">
                    <mxGeometry x="325" y="550" width="370" height="60" as="geometry"/>
                </mxCell>
                <mxCell id="20" value="Конец" style="rounded=1;whiteSpace=wrap;html=1;arcSize=50;fontSize=20;" parent="1" vertex="1">
                    <mxGeometry x="320" y="750" width="380" height="60" as="geometry"/>
                </mxCell>
                <mxCell id="27" style="edgeStyle=none;html=1;exitX=0.5;exitY=1;exitDx=0;exitDy=0;entryX=0.5;entryY=0;entryDx=0;entryDy=0;fontSize=20;" parent="1" source="26" target="13" edge="1">
                    <mxGeometry relative="1" as="geometry"/>
                </mxCell>
                <mxCell id="26" value="words - массив слов" style="shape=parallelogram;perimeter=parallelogramPerimeter;whiteSpace=wrap;html=1;fixedSize=1;fontSize=20;" parent="1" vertex="1">
                    <mxGeometry x="320" y="170" width="380" height="60" as="geometry"/>
                </mxCell>
                <mxCell id="29" style="edgeStyle=none;html=1;exitX=0.5;exitY=1;exitDx=0;exitDy=0;entryX=0.5;entryY=0;entryDx=0;entryDy=0;fontSize=20;" parent="1" source="28" target="20" edge="1">
                    <mxGeometry relative="1" as="geometry"/>
                </mxCell>
                <mxCell id="28" value="Возвращает vect" style="shape=parallelogram;perimeter=parallelogramPerimeter;whiteSpace=wrap;html=1;fixedSize=1;fontSize=20;" parent="1" vertex="1">
                    <mxGeometry x="320" y="650" width="380" height="60" as="geometry"/>
                </mxCell>
            </root>
        </mxGraphModel>
    </diagram>
</mxfile>